<?xml version="1.0" encoding="UTF-8"?>
<svg width="113px" height="56px" viewBox="0 0 113 56" version="1.1" xmlns="http://www.w3.org/2000/svg" xmlns:xlink="http://www.w3.org/1999/xlink">
    <!-- Generator: Sketch 57.1 (83088) - https://sketch.com -->
    <title>Group 3</title>
    <desc>Created with Sketch.</desc>
    <g id="User-App-V2" stroke="none" stroke-width="1" fill="none" fill-rule="evenodd">
        <g id="Desktop-HD" transform="translate(-174.000000, -20.000000)" fill="#FFFFFF">
            <g id="Group-3" transform="translate(174.000000, 20.000000)">
                <g id="Group-2">
                    <path d="M40.6159923,7.56527692 L28.4764308,17.5536362 L23.4007308,21.7733815 L18.3263769,17.5536362 L6.18627692,7.56527692 C2.34629231,11.7379608 -9.09494702e-13,17.3082 -9.09494702e-13,23.4263615 C-9.09494702e-13,29.8947385 2.62106923,35.7514285 6.86091538,39.9907577 C7.36836154,40.4981985 7.90418462,40.9765785 8.45605385,41.4357731 L14.1869538,35.7055462 C13.6122,35.2717292 13.0555923,34.8133262 12.5478769,34.3048354 C9.76408462,31.5210323 8.04197692,27.6748985 8.04197692,23.4263615 C8.04197692,22.1694685 8.19236923,20.9478069 8.47656923,19.7787315 L20.8656538,30.0795708 L23.3799462,32.1700508 L23.3799462,32.2056808 L23.4007308,32.1879331 L23.4228077,32.2056808 L23.4228077,32.1700508 L25.9371538,30.0795708 L38.3257,19.7787315 C38.6109769,20.9478069 38.7611,22.1694685 38.7611,23.4263615 C38.7611,27.6748985 37.0381846,31.5210323 34.2546077,34.3048354 C33.7469462,34.8133262 33.1910923,35.2717292 32.6150462,35.7055462 L38.3456769,41.4357731 C38.8975462,40.9765785 39.4328308,40.4981985 39.9408154,39.9907577 C44.1801231,35.7514285 46.802,29.8947385 46.802,23.4263615 C46.802,17.3082 44.4561923,11.7379608 40.6159923,7.56527692 Z" id="Fill-1"></path>
                    <path d="M23.3899615,1.13686838e-13 C29.1084769,1.13686838e-13 34.3490538,2.0496 38.4153538,5.45389385 L32.039,10.7008731 C29.5738692,9.02304308 26.5965538,8.04208462 23.3899615,8.04208462 C20.1933846,8.04208462 17.2255462,9.01673231 14.7656385,10.6850962 L8.38616154,5.43601692 C12.4509,2.04263231 17.6824846,1.13686838e-13 23.3899615,1.13686838e-13 Z" id="Fill-2"></path>
                    <path d="M23.4013231,38.8015062 C21.1236308,38.8015062 18.9695154,38.2897308 17.0276077,37.3966546 L10.7485,43.6747392 C12.7924462,45.7574654 15.1374462,47.9099977 17.4288154,50.00114 C18.9469,51.3874523 20.3811462,52.6962692 21.6431385,53.91169 L23.3955077,55.5993092 L23.3955077,55.6097608 L23.4013231,55.6046346 L23.4073538,55.6097608 L23.4068154,55.5993092 L25.1599923,53.91169 C26.4209615,52.6962692 27.8559615,51.3874523 29.3741,50.00114 C31.6641231,47.9099977 34.0098769,45.7574654 36.0538231,43.6747392 L29.7755769,37.3966546 C27.8325923,38.2897308 25.6797692,38.8015062 23.4013231,38.8015062 Z" id="Fill-6"></path>
                </g>
                <g id="Group" transform="translate(52.769231, 12.923077)">
                    <g id="Group-5" transform="translate(29.076923, 0.000000)">
                        <polygon id="Fill-3" points="0.647284615 0.688848462 0.647284615 0.686613846 0.646746154 0.687405385"></polygon>
                        <polygon id="Fill-4" points="0.646746154 0.688848462 0.647284615 0.687405385 0.646746154 0.686613846"></polygon>
                    </g>
                    <path d="M47.5247231,12.1817823 C47.5247231,13.7746592 46.2288077,15.0706285 44.6362538,15.0706285 C43.043,15.0706285 41.7478385,13.7746592 41.7478385,12.1817823 L38.9719077,12.1817823 C38.9719077,15.3098669 41.5083308,17.8457515 44.6362538,17.8457515 C47.7645,17.8457515 50.3003846,15.3098669 50.3003846,12.1817823" id="Fill-7"></path>
                    <path d="M29.9017385,10.8916069 C29.4515846,13.2675146 27.3634846,15.0703377 24.8588846,15.0703377 C22.0277615,15.0703377 19.7235231,12.7667454 19.7235231,9.93524538 L19.7235231,2.02449154 L16.9486692,2.02449154 L16.9486692,9.93524538 C16.9486692,14.2971069 20.4975615,17.8454608 24.8588846,17.8454608 C28.8963231,17.8454608 32.2301538,14.8032069 32.7044308,10.8916069 L29.9017385,10.8916069 Z" id="Fill-8"></path>
                    <path d="M47.5247231,12.1817823 C47.5247231,13.7746592 46.2288077,15.0706285 44.6362538,15.0706285 C43.043,15.0706285 41.7478385,13.7746592 41.7478385,12.1817823 L38.9719077,12.1817823 C38.9719077,15.3098669 41.5083308,17.8457515 44.6362538,17.8457515 C47.7645,17.8457515 50.3003846,15.3098669 50.3003846,12.1817823" id="Fill-9"></path>
                    <path d="M35.7861538,8.69049462 L35.7861538,5.91510231 C32.4922769,5.91510231 29.8220462,8.58576385 29.8220462,11.8805562 C29.8220462,15.17481 32.4922769,17.8455254 35.7861538,17.8455254 C39.0815923,17.8455254 41.7523615,15.17481 41.7523615,11.8805562 L38.9775077,11.8805562 C38.9775077,13.6394946 37.5461154,15.0705638 35.7861538,15.0705638 C34.0282385,15.0705638 32.5964154,13.6394946 32.5964154,11.8805562 C32.5964154,10.1215638 34.0282385,8.69049462 35.7861538,8.69049462" id="Fill-10"></path>
                    <path d="M5.76374615,12.7190323 C5.28020769,12.5347708 7.75664615,11.4053477 8.21180769,11.2480092 C4.42653077,11.6420015 7.64254615,7.36123231 9.72014615,7.15117846 L9.72014615,8.96320923 C8.95165385,8.93709385 8.12683846,9.48880154 8.12683846,9.67257846 C8.12683846,9.96130154 10.1197923,9.61986308 10.1197923,10.1973631 C10.1197923,12.4035477 7.55709231,12.7190323 6.41894615,12.7190323 L5.76374615,12.7190323 Z" id="Fill-11"></path>
                    <path d="M7.91075385,17.8454608 C3.54894615,17.8454608 1.36779477e-12,14.2971069 1.36779477e-12,9.93524538 L2.77490769,9.93524538 C2.77490769,12.7667454 5.07963077,15.0706069 7.91075385,15.0706069 C10.7424154,15.0706069 13.0456308,12.7667454 13.0456308,9.93524538 C13.0456308,7.10372385 10.7424154,4.79948538 7.91075385,4.79948538 L7.91075385,2.02449154 C12.2731538,2.02449154 15.8210231,5.57326 15.8210231,9.93524538 C15.8210231,14.2971069 12.2731538,17.8454608 7.91075385,17.8454608 Z" id="Fill-12"></path>
                    <path d="M53.4828,8.69049462 C55.2412,8.69049462 56.672,10.1215638 56.672,11.8805562 C56.672,13.6394946 55.2412,15.0705638 53.4828,15.0705638 C51.7233231,15.0705638 50.2919846,13.6394946 50.2919846,11.8805562 C50.2919846,10.1215638 51.7233231,8.69049462 53.4828,8.69049462 L53.4828,8.69049462 Z M53.4828,5.91510231 C50.1873077,5.91510231 47.5176154,8.58576385 47.5176154,11.8805562 C47.5176154,15.17481 50.1873077,17.8455254 53.4828,17.8455254 C56.7771615,17.8455254 59.4473923,15.17481 59.4473923,11.8805562 C59.4473923,8.58576385 56.7771615,5.91510231 53.4828,5.91510231 Z" id="Fill-13"></path>
                    <path d="M35.3373462,28.0435077 L33.1593231,28.0435077 C33.1593231,30.6282846 35.2548,32.7234923 37.8395769,32.7234923 C40.4235462,32.7234923 42.5190231,30.6282846 42.5190231,28.0435077 C42.5190231,25.4592692 40.4235462,23.3639 37.8395769,23.3639 L37.8395769,25.5412769 C39.2198692,25.5412769 40.3412692,26.6638615 40.3412692,28.0435077 C40.3412692,29.4234769 39.2198692,30.5462769 37.8395769,30.5462769 C36.4595,30.5462769 35.3373462,29.4234769 35.3373462,28.0435077" id="Fill-14"></path>
                    <polygon id="Fill-15" points="53.1260154 22.8275923 50.3793231 22.8275923 46.9337077 27.7753538 50.3793231 32.7232769 53.1260154 32.7232769 49.4730385 27.7753538"></polygon>
                    <polygon id="Fill-16" points="40.3309469 27.7755972 42.5191202 27.7755972 42.5191202 32.7234731 40.3309469 32.7234731"></polygon>
                    <path d="M24.8751462,28.0435077 L22.6992231,28.0435077 C22.6992231,30.6282846 24.7941615,32.7234923 27.3787231,32.7234923 C29.9632308,32.7234923 32.0581692,30.6282846 32.0581692,28.0435077 C32.0581692,25.4592692 29.9632308,23.3639 27.3787231,23.3639 L27.3787231,25.5412769 C28.7585308,25.5412769 29.8806308,26.6638615 29.8806308,28.0435077 C29.8806308,29.4234769 28.7585308,30.5462769 27.3787231,30.5462769 C25.9994,30.5462769 24.8751462,29.4234769 24.8751462,28.0435077" id="Fill-17"></path>
                    <polygon id="Fill-18" points="29.8708448 28.0437764 32.059018 28.0437764 32.059018 32.7234768 29.8708448 32.7234768"></polygon>
                    <polygon id="Fill-19" points="44.7452864 22.827693 46.9334596 22.827693 46.9334596 32.7234449 44.7452864 32.7234449"></polygon>
                    <path d="M21.5992,32.7232769 L19.4188077,32.7232769 L19.4188077,27.1922 C19.4188077,25.9878769 18.4388615,25.0083615 17.2349692,25.0083615 C16.0305385,25.0083615 15.0501077,25.9878769 15.0501077,27.1922 L15.0501077,32.7232769 L12.8697154,32.7232769 L12.8697154,27.1922 C12.8697154,24.7854385 14.8274,22.8275923 17.2349692,22.8275923 C19.6414615,22.8275923 21.5992,24.7854385 21.5992,27.1922 L21.5992,32.7232769 Z" id="Fill-20"></path>
                    <path d="M15.0514538,32.7232769 L12.8715462,32.7232769 L12.8715462,27.1922 C12.8715462,25.9878769 11.8905769,25.0083615 10.6872231,25.0083615 C9.48252308,25.0083615 8.50338462,25.9878769 8.50338462,27.1922 L8.50338462,32.7232769 L6.32272308,32.7232769 L6.32272308,27.1922 C6.32272308,24.7854385 8.27911538,22.8275923 10.6872231,22.8275923 C13.0939846,22.8275923 15.0514538,24.7854385 15.0514538,27.1922 L15.0514538,32.7232769 Z" id="Fill-21"></path>
                    <g id="Group-24" transform="translate(29.076923, 0.000000)">
                        <polygon id="Fill-22" points="0.647284615 0.688848462 0.647284615 0.686613846 0.646746154 0.687405385"></polygon>
                        <polygon id="Fill-23" points="0.646746154 0.688848462 0.647284615 0.687405385 0.646746154 0.686613846"></polygon>
                    </g>
                </g>
            </g>
        </g>
    </g>
</svg>